# xmcd CD database file
#
# Track frame offsets:
#	150
#	16023
#	41334
#	58025
#	75177
#	92518
#	113101
#	133626
#	149036
#	165165
#	183604
#	208374
#	228641
#	243303
#	257447
#	275706
#	289107
#	309094
#
# Disc length: 4379 seconds
#
# Revision: 0
# Processed by: cddbd v1.5.2PL0 Copyright (c) Steve Scherf et al.
# Submitted via: CDex 1.70beta2
#
DISCID=f2111912
DTITLE=Various Artist - The World's Best Award Winning Country Volume 5
DYEAR=2006
DGENRE=Country
TTITLE0=Gretchen Wilson - All Jacked Up
TTITLE1=Brooks and Dunn - Believe
TTITLE2=Sara Storer - Firefly
TTITLE3=Toby Keith - As Good As I Once Was
TTITLE4=Brad Paisley featuring Alison Krauss - Whiskey Lullaby
TTITLE5=Dierks Bentley - Lot of Leavin' Left to Do
TTITLE6=Lee Ann Womack - I May Hate Myself In The Morning
TTITLE7=Troy Cassar-Daley - Going Back Home
TTITLE8=Terri Clark - Girls Lie Too
TTITLE9=The Road Hammers - I'm A Road Hammer
TTITLE10=Paul Kelly and The Stormwater Boys - Rally Round the Drum
TTITLE11=Paul Brandt - Convoy (This Time Around)
TTITLE12=John Williamson - Chandalier of Stars
TTITLE13=The Flood  - Hello Blue Sky
TTITLE14=George Canyon - My Name
TTITLE15=Corb Lund - The Truck Got Stuck
TTITLE16=Jimmy Barnes with Troy Cassar-Daley featuring Bella - Bird on a Wire
TTITLE17=Samantha McClymont - Heart of a Man
EXTD=YEAR: 2006
EXTT0=
EXTT1=
EXTT2=
EXTT3=
EXTT4=
EXTT5=
EXTT6=
EXTT7=
EXTT8=
EXTT9=
EXTT10=
EXTT11=
EXTT12=
EXTT13=
EXTT14=
EXTT15=
EXTT16=
EXTT17=
PLAYORDER=
